<mxfile host="app.diagrams.net" agent="Mozilla/5.0 (Windows NT 10.0; Win64; x64) AppleWebKit/537.36 (KHTML, like Gecko) Chrome/137.0.0.0 Safari/537.36" version="28.2.3">
  <diagram name="PÃ¡gina-1" id="AM48xnVBEcLvSyvs3WHB">
    <mxGraphModel dx="1186" dy="755" grid="1" gridSize="10" guides="1" tooltips="1" connect="1" arrows="1" fold="1" page="1" pageScale="1" pageWidth="827" pageHeight="1169" math="0" shadow="0">
      <root>
        <mxCell id="0" />
        <mxCell id="1" parent="0" />
        <mxCell id="EpXEp-IcNVI_Flkq9AfP-4" value="&lt;font style=&quot;vertical-align: inherit;&quot; dir=&quot;auto&quot;&gt;&lt;font style=&quot;vertical-align: inherit;&quot; dir=&quot;auto&quot;&gt;combustivel&lt;/font&gt;&lt;/font&gt;" style="ellipse;whiteSpace=wrap;html=1;align=center;" vertex="1" parent="1">
          <mxGeometry x="360" y="460" width="100" height="40" as="geometry" />
        </mxCell>
        <mxCell id="EpXEp-IcNVI_Flkq9AfP-5" value="&lt;font style=&quot;vertical-align: inherit;&quot; dir=&quot;auto&quot;&gt;&lt;font style=&quot;vertical-align: inherit;&quot; dir=&quot;auto&quot;&gt;versao&lt;/font&gt;&lt;/font&gt;" style="ellipse;whiteSpace=wrap;html=1;align=center;" vertex="1" parent="1">
          <mxGeometry x="240" y="450" width="100" height="40" as="geometry" />
        </mxCell>
        <mxCell id="EpXEp-IcNVI_Flkq9AfP-6" value="&lt;font style=&quot;vertical-align: inherit;&quot; dir=&quot;auto&quot;&gt;&lt;font style=&quot;vertical-align: inherit;&quot; dir=&quot;auto&quot;&gt;Modelo&lt;/font&gt;&lt;/font&gt;" style="ellipse;whiteSpace=wrap;html=1;align=center;" vertex="1" parent="1">
          <mxGeometry x="150" y="390" width="100" height="40" as="geometry" />
        </mxCell>
        <mxCell id="EpXEp-IcNVI_Flkq9AfP-7" value="&lt;font style=&quot;vertical-align: inherit;&quot; dir=&quot;auto&quot;&gt;&lt;font style=&quot;vertical-align: inherit;&quot; dir=&quot;auto&quot;&gt;Marca&lt;/font&gt;&lt;/font&gt;" style="ellipse;whiteSpace=wrap;html=1;align=center;" vertex="1" parent="1">
          <mxGeometry x="100" y="310" width="100" height="40" as="geometry" />
        </mxCell>
        <mxCell id="EpXEp-IcNVI_Flkq9AfP-9" value="&lt;font style=&quot;vertical-align: inherit;&quot; dir=&quot;auto&quot;&gt;&lt;font style=&quot;vertical-align: inherit;&quot; dir=&quot;auto&quot;&gt;Cor&lt;/font&gt;&lt;/font&gt;" style="ellipse;whiteSpace=wrap;html=1;align=center;" vertex="1" parent="1">
          <mxGeometry x="200" y="160" width="100" height="40" as="geometry" />
        </mxCell>
        <mxCell id="EpXEp-IcNVI_Flkq9AfP-10" value="&lt;font style=&quot;vertical-align: inherit;&quot; dir=&quot;auto&quot;&gt;&lt;font style=&quot;vertical-align: inherit;&quot; dir=&quot;auto&quot;&gt;NumChassi&lt;/font&gt;&lt;/font&gt;" style="ellipse;whiteSpace=wrap;html=1;align=center;fontStyle=4;" vertex="1" parent="1">
          <mxGeometry x="100" y="220" width="100" height="40" as="geometry" />
        </mxCell>
        <mxCell id="EpXEp-IcNVI_Flkq9AfP-12" style="edgeStyle=orthogonalEdgeStyle;rounded=0;orthogonalLoop=1;jettySize=auto;html=1;exitX=0.5;exitY=1;exitDx=0;exitDy=0;" edge="1" parent="1" source="EpXEp-IcNVI_Flkq9AfP-6" target="EpXEp-IcNVI_Flkq9AfP-6">
          <mxGeometry relative="1" as="geometry" />
        </mxCell>
        <mxCell id="EpXEp-IcNVI_Flkq9AfP-13" value="&lt;font style=&quot;vertical-align: inherit;&quot; dir=&quot;auto&quot;&gt;&lt;font style=&quot;vertical-align: inherit;&quot; dir=&quot;auto&quot;&gt;Matricula?&lt;/font&gt;&lt;/font&gt;" style="ellipse;whiteSpace=wrap;html=1;align=center;" vertex="1" parent="1">
          <mxGeometry x="320" y="130" width="100" height="40" as="geometry" />
        </mxCell>
        <mxCell id="EpXEp-IcNVI_Flkq9AfP-14" value="&lt;font style=&quot;vertical-align: inherit;&quot; dir=&quot;auto&quot;&gt;&lt;font style=&quot;vertical-align: inherit;&quot; dir=&quot;auto&quot;&gt;CARRO&lt;/font&gt;&lt;/font&gt;" style="whiteSpace=wrap;html=1;align=center;" vertex="1" parent="1">
          <mxGeometry x="310" y="290" width="140" height="50" as="geometry" />
        </mxCell>
        <mxCell id="EpXEp-IcNVI_Flkq9AfP-15" value="&lt;font style=&quot;vertical-align: inherit;&quot; dir=&quot;auto&quot;&gt;&lt;font style=&quot;vertical-align: inherit;&quot; dir=&quot;auto&quot;&gt;Eletrico&lt;/font&gt;&lt;/font&gt;" style="ellipse;whiteSpace=wrap;html=1;align=center;dashed=1;" vertex="1" parent="1">
          <mxGeometry x="480" y="440" width="100" height="40" as="geometry" />
        </mxCell>
        <mxCell id="EpXEp-IcNVI_Flkq9AfP-16" value="&lt;font style=&quot;vertical-align: inherit;&quot; dir=&quot;auto&quot;&gt;&lt;font style=&quot;vertical-align: inherit;&quot; dir=&quot;auto&quot;&gt;Motor&lt;/font&gt;&lt;/font&gt;" style="ellipse;whiteSpace=wrap;html=1;align=center;" vertex="1" parent="1">
          <mxGeometry x="430" y="120" width="100" height="40" as="geometry" />
        </mxCell>
        <mxCell id="EpXEp-IcNVI_Flkq9AfP-17" value="" style="endArrow=none;html=1;rounded=0;exitX=0.39;exitY=1.025;exitDx=0;exitDy=0;exitPerimeter=0;entryX=0.25;entryY=0.1;entryDx=0;entryDy=0;entryPerimeter=0;" edge="1" parent="1" source="EpXEp-IcNVI_Flkq9AfP-16" target="EpXEp-IcNVI_Flkq9AfP-31">
          <mxGeometry relative="1" as="geometry">
            <mxPoint x="330" y="390" as="sourcePoint" />
            <mxPoint x="490" y="390" as="targetPoint" />
          </mxGeometry>
        </mxCell>
        <mxCell id="EpXEp-IcNVI_Flkq9AfP-18" value="" style="endArrow=none;html=1;rounded=0;dashed=1;entryX=0.22;entryY=0.025;entryDx=0;entryDy=0;entryPerimeter=0;exitX=0.75;exitY=1;exitDx=0;exitDy=0;" edge="1" parent="1" source="EpXEp-IcNVI_Flkq9AfP-14" target="EpXEp-IcNVI_Flkq9AfP-15">
          <mxGeometry relative="1" as="geometry">
            <mxPoint x="330" y="390" as="sourcePoint" />
            <mxPoint x="490" y="390" as="targetPoint" />
          </mxGeometry>
        </mxCell>
        <mxCell id="EpXEp-IcNVI_Flkq9AfP-19" value="" style="endArrow=none;html=1;rounded=0;entryX=0;entryY=1;entryDx=0;entryDy=0;exitX=0.557;exitY=-0.02;exitDx=0;exitDy=0;exitPerimeter=0;" edge="1" parent="1" source="EpXEp-IcNVI_Flkq9AfP-14" target="EpXEp-IcNVI_Flkq9AfP-16">
          <mxGeometry relative="1" as="geometry">
            <mxPoint x="330" y="390" as="sourcePoint" />
            <mxPoint x="490" y="390" as="targetPoint" />
          </mxGeometry>
        </mxCell>
        <mxCell id="EpXEp-IcNVI_Flkq9AfP-20" value="" style="endArrow=none;html=1;rounded=0;entryX=0.4;entryY=1;entryDx=0;entryDy=0;entryPerimeter=0;exitX=0.371;exitY=0.06;exitDx=0;exitDy=0;exitPerimeter=0;" edge="1" parent="1" source="EpXEp-IcNVI_Flkq9AfP-14" target="EpXEp-IcNVI_Flkq9AfP-13">
          <mxGeometry relative="1" as="geometry">
            <mxPoint x="330" y="390" as="sourcePoint" />
            <mxPoint x="490" y="390" as="targetPoint" />
          </mxGeometry>
        </mxCell>
        <mxCell id="EpXEp-IcNVI_Flkq9AfP-21" value="" style="endArrow=none;html=1;rounded=0;exitX=0.7;exitY=1;exitDx=0;exitDy=0;exitPerimeter=0;entryX=0.136;entryY=-0.04;entryDx=0;entryDy=0;entryPerimeter=0;" edge="1" parent="1" source="EpXEp-IcNVI_Flkq9AfP-9" target="EpXEp-IcNVI_Flkq9AfP-14">
          <mxGeometry relative="1" as="geometry">
            <mxPoint x="330" y="390" as="sourcePoint" />
            <mxPoint x="490" y="390" as="targetPoint" />
          </mxGeometry>
        </mxCell>
        <mxCell id="EpXEp-IcNVI_Flkq9AfP-22" value="" style="endArrow=none;html=1;rounded=0;exitX=0.95;exitY=0.85;exitDx=0;exitDy=0;exitPerimeter=0;entryX=0;entryY=0.2;entryDx=0;entryDy=0;entryPerimeter=0;" edge="1" parent="1" source="EpXEp-IcNVI_Flkq9AfP-10" target="EpXEp-IcNVI_Flkq9AfP-14">
          <mxGeometry relative="1" as="geometry">
            <mxPoint x="330" y="390" as="sourcePoint" />
            <mxPoint x="490" y="390" as="targetPoint" />
          </mxGeometry>
        </mxCell>
        <mxCell id="EpXEp-IcNVI_Flkq9AfP-23" value="" style="endArrow=none;html=1;rounded=0;exitX=1;exitY=0.5;exitDx=0;exitDy=0;entryX=0;entryY=0.75;entryDx=0;entryDy=0;" edge="1" parent="1" source="EpXEp-IcNVI_Flkq9AfP-7" target="EpXEp-IcNVI_Flkq9AfP-14">
          <mxGeometry relative="1" as="geometry">
            <mxPoint x="330" y="390" as="sourcePoint" />
            <mxPoint x="490" y="390" as="targetPoint" />
          </mxGeometry>
        </mxCell>
        <mxCell id="EpXEp-IcNVI_Flkq9AfP-24" value="" style="endArrow=none;html=1;rounded=0;exitX=0.4;exitY=0;exitDx=0;exitDy=0;exitPerimeter=0;entryX=0.414;entryY=0.96;entryDx=0;entryDy=0;entryPerimeter=0;" edge="1" parent="1" source="EpXEp-IcNVI_Flkq9AfP-4" target="EpXEp-IcNVI_Flkq9AfP-14">
          <mxGeometry relative="1" as="geometry">
            <mxPoint x="330" y="390" as="sourcePoint" />
            <mxPoint x="368" y="344" as="targetPoint" />
          </mxGeometry>
        </mxCell>
        <mxCell id="EpXEp-IcNVI_Flkq9AfP-25" value="" style="endArrow=none;html=1;rounded=0;exitX=1.01;exitY=0.35;exitDx=0;exitDy=0;exitPerimeter=0;entryX=0;entryY=1;entryDx=0;entryDy=0;" edge="1" parent="1" source="EpXEp-IcNVI_Flkq9AfP-6" target="EpXEp-IcNVI_Flkq9AfP-14">
          <mxGeometry relative="1" as="geometry">
            <mxPoint x="330" y="390" as="sourcePoint" />
            <mxPoint x="490" y="390" as="targetPoint" />
          </mxGeometry>
        </mxCell>
        <mxCell id="EpXEp-IcNVI_Flkq9AfP-26" value="" style="endArrow=none;html=1;rounded=0;exitX=0.59;exitY=0;exitDx=0;exitDy=0;exitPerimeter=0;entryX=0.157;entryY=0.98;entryDx=0;entryDy=0;entryPerimeter=0;" edge="1" parent="1" source="EpXEp-IcNVI_Flkq9AfP-5" target="EpXEp-IcNVI_Flkq9AfP-14">
          <mxGeometry relative="1" as="geometry">
            <mxPoint x="330" y="390" as="sourcePoint" />
            <mxPoint x="490" y="390" as="targetPoint" />
          </mxGeometry>
        </mxCell>
        <mxCell id="EpXEp-IcNVI_Flkq9AfP-27" value="" style="endArrow=none;html=1;rounded=0;entryX=0;entryY=0.5;entryDx=0;entryDy=0;exitX=1;exitY=1;exitDx=0;exitDy=0;" edge="1" parent="1" source="EpXEp-IcNVI_Flkq9AfP-16" target="EpXEp-IcNVI_Flkq9AfP-32">
          <mxGeometry relative="1" as="geometry">
            <mxPoint x="330" y="390" as="sourcePoint" />
            <mxPoint x="490" y="390" as="targetPoint" />
          </mxGeometry>
        </mxCell>
        <mxCell id="EpXEp-IcNVI_Flkq9AfP-28" value="" style="endArrow=none;html=1;rounded=0;entryX=0;entryY=0.5;entryDx=0;entryDy=0;exitX=0.92;exitY=0.175;exitDx=0;exitDy=0;exitPerimeter=0;" edge="1" parent="1" source="EpXEp-IcNVI_Flkq9AfP-16" target="EpXEp-IcNVI_Flkq9AfP-33">
          <mxGeometry relative="1" as="geometry">
            <mxPoint x="330" y="390" as="sourcePoint" />
            <mxPoint x="490" y="390" as="targetPoint" />
          </mxGeometry>
        </mxCell>
        <mxCell id="EpXEp-IcNVI_Flkq9AfP-29" value="" style="endArrow=none;html=1;rounded=0;exitX=0.36;exitY=0.125;exitDx=0;exitDy=0;exitPerimeter=0;" edge="1" parent="1" source="EpXEp-IcNVI_Flkq9AfP-16" target="EpXEp-IcNVI_Flkq9AfP-30">
          <mxGeometry relative="1" as="geometry">
            <mxPoint x="330" y="390" as="sourcePoint" />
            <mxPoint x="490" y="390" as="targetPoint" />
          </mxGeometry>
        </mxCell>
        <mxCell id="EpXEp-IcNVI_Flkq9AfP-30" value="Cv" style="ellipse;whiteSpace=wrap;html=1;align=center;" vertex="1" parent="1">
          <mxGeometry x="480" y="30" width="100" height="40" as="geometry" />
        </mxCell>
        <mxCell id="EpXEp-IcNVI_Flkq9AfP-31" value="Turbo?" style="ellipse;whiteSpace=wrap;html=1;align=center;" vertex="1" parent="1">
          <mxGeometry x="520" y="180" width="100" height="40" as="geometry" />
        </mxCell>
        <mxCell id="EpXEp-IcNVI_Flkq9AfP-32" value="Binario" style="ellipse;whiteSpace=wrap;html=1;align=center;" vertex="1" parent="1">
          <mxGeometry x="600" y="120" width="100" height="40" as="geometry" />
        </mxCell>
        <mxCell id="EpXEp-IcNVI_Flkq9AfP-33" value="Cilindrada" style="ellipse;whiteSpace=wrap;html=1;align=center;" vertex="1" parent="1">
          <mxGeometry x="580" y="60" width="100" height="40" as="geometry" />
        </mxCell>
        <mxCell id="EpXEp-IcNVI_Flkq9AfP-34" value="" style="endArrow=none;html=1;rounded=0;entryX=0.5;entryY=0;entryDx=0;entryDy=0;exitX=0.454;exitY=1.033;exitDx=0;exitDy=0;exitPerimeter=0;" edge="1" parent="1" source="EpXEp-IcNVI_Flkq9AfP-45" target="EpXEp-IcNVI_Flkq9AfP-47">
          <mxGeometry relative="1" as="geometry">
            <mxPoint x="330" y="390" as="sourcePoint" />
            <mxPoint x="490" y="390" as="targetPoint" />
          </mxGeometry>
        </mxCell>
        <mxCell id="EpXEp-IcNVI_Flkq9AfP-35" value="" style="endArrow=none;html=1;rounded=0;entryX=0.28;entryY=0;entryDx=0;entryDy=0;entryPerimeter=0;exitX=0.7;exitY=0.933;exitDx=0;exitDy=0;exitPerimeter=0;" edge="1" parent="1" source="EpXEp-IcNVI_Flkq9AfP-45" target="EpXEp-IcNVI_Flkq9AfP-48">
          <mxGeometry relative="1" as="geometry">
            <mxPoint x="330" y="390" as="sourcePoint" />
            <mxPoint x="490" y="390" as="targetPoint" />
          </mxGeometry>
        </mxCell>
        <mxCell id="EpXEp-IcNVI_Flkq9AfP-36" value="" style="endArrow=none;html=1;rounded=0;entryX=1;entryY=0.667;entryDx=0;entryDy=0;entryPerimeter=0;exitX=0.05;exitY=0.325;exitDx=0;exitDy=0;exitPerimeter=0;" edge="1" parent="1" source="EpXEp-IcNVI_Flkq9AfP-49" target="EpXEp-IcNVI_Flkq9AfP-45">
          <mxGeometry relative="1" as="geometry">
            <mxPoint x="575" y="499" as="sourcePoint" />
            <mxPoint x="735" y="499" as="targetPoint" />
          </mxGeometry>
        </mxCell>
        <mxCell id="EpXEp-IcNVI_Flkq9AfP-37" value="" style="endArrow=none;html=1;rounded=0;entryX=0.008;entryY=0.4;entryDx=0;entryDy=0;entryPerimeter=0;exitX=1;exitY=1;exitDx=0;exitDy=0;" edge="1" parent="1" source="EpXEp-IcNVI_Flkq9AfP-14" target="EpXEp-IcNVI_Flkq9AfP-45">
          <mxGeometry relative="1" as="geometry">
            <mxPoint x="330" y="390" as="sourcePoint" />
            <mxPoint x="490" y="390" as="targetPoint" />
          </mxGeometry>
        </mxCell>
        <mxCell id="EpXEp-IcNVI_Flkq9AfP-38" value="" style="endArrow=none;html=1;rounded=0;entryX=0;entryY=0.5;entryDx=0;entryDy=0;exitX=0.967;exitY=0.74;exitDx=0;exitDy=0;exitPerimeter=0;" edge="1" parent="1" source="EpXEp-IcNVI_Flkq9AfP-42" target="EpXEp-IcNVI_Flkq9AfP-43">
          <mxGeometry relative="1" as="geometry">
            <mxPoint x="330" y="390" as="sourcePoint" />
            <mxPoint x="490" y="390" as="targetPoint" />
          </mxGeometry>
        </mxCell>
        <mxCell id="EpXEp-IcNVI_Flkq9AfP-39" value="" style="endArrow=none;html=1;rounded=0;entryX=0;entryY=0.7;entryDx=0;entryDy=0;entryPerimeter=0;exitX=1;exitY=0;exitDx=0;exitDy=0;" edge="1" parent="1" source="EpXEp-IcNVI_Flkq9AfP-42" target="EpXEp-IcNVI_Flkq9AfP-44">
          <mxGeometry relative="1" as="geometry">
            <mxPoint x="330" y="390" as="sourcePoint" />
            <mxPoint x="490" y="390" as="targetPoint" />
          </mxGeometry>
        </mxCell>
        <mxCell id="EpXEp-IcNVI_Flkq9AfP-40" value="" style="endArrow=none;html=1;rounded=0;entryX=0;entryY=0.5;entryDx=0;entryDy=0;exitX=1;exitY=0.25;exitDx=0;exitDy=0;" edge="1" parent="1" source="EpXEp-IcNVI_Flkq9AfP-14" target="EpXEp-IcNVI_Flkq9AfP-42">
          <mxGeometry relative="1" as="geometry">
            <mxPoint x="330" y="390" as="sourcePoint" />
            <mxPoint x="440" y="390" as="targetPoint" />
          </mxGeometry>
        </mxCell>
        <mxCell id="EpXEp-IcNVI_Flkq9AfP-42" value="Demo" style="ellipse;shape=doubleEllipse;margin=3;whiteSpace=wrap;html=1;align=center;" vertex="1" parent="1">
          <mxGeometry x="490" y="270" width="120" height="50" as="geometry" />
        </mxCell>
        <mxCell id="EpXEp-IcNVI_Flkq9AfP-43" value="Nif" style="ellipse;whiteSpace=wrap;html=1;align=center;" vertex="1" parent="1">
          <mxGeometry x="650" y="290" width="100" height="40" as="geometry" />
        </mxCell>
        <mxCell id="EpXEp-IcNVI_Flkq9AfP-44" value="nome" style="ellipse;whiteSpace=wrap;html=1;align=center;" vertex="1" parent="1">
          <mxGeometry x="640" y="220" width="100" height="40" as="geometry" />
        </mxCell>
        <mxCell id="EpXEp-IcNVI_Flkq9AfP-45" value="Custom" style="ellipse;shape=doubleEllipse;margin=3;whiteSpace=wrap;html=1;align=center;" vertex="1" parent="1">
          <mxGeometry x="590" y="380" width="130" height="60" as="geometry" />
        </mxCell>
        <mxCell id="EpXEp-IcNVI_Flkq9AfP-46" value="PreÃ§o?" style="ellipse;whiteSpace=wrap;html=1;align=center;" vertex="1" parent="1">
          <mxGeometry x="510" y="525" width="100" height="40" as="geometry" />
        </mxCell>
        <mxCell id="EpXEp-IcNVI_Flkq9AfP-47" value="Ohs" style="ellipse;whiteSpace=wrap;html=1;align=center;" vertex="1" parent="1">
          <mxGeometry x="620" y="565" width="100" height="40" as="geometry" />
        </mxCell>
        <mxCell id="EpXEp-IcNVI_Flkq9AfP-48" value="Tipo" style="ellipse;whiteSpace=wrap;html=1;align=center;" vertex="1" parent="1">
          <mxGeometry x="700" y="510" width="100" height="40" as="geometry" />
        </mxCell>
        <mxCell id="EpXEp-IcNVI_Flkq9AfP-49" value="Data" style="ellipse;whiteSpace=wrap;html=1;align=center;" vertex="1" parent="1">
          <mxGeometry x="727" y="430" width="100" height="40" as="geometry" />
        </mxCell>
        <mxCell id="EpXEp-IcNVI_Flkq9AfP-50" value="" style="endArrow=none;html=1;rounded=0;entryX=0.59;entryY=0.075;entryDx=0;entryDy=0;entryPerimeter=0;exitX=0;exitY=1;exitDx=0;exitDy=0;" edge="1" parent="1" source="EpXEp-IcNVI_Flkq9AfP-45" target="EpXEp-IcNVI_Flkq9AfP-46">
          <mxGeometry relative="1" as="geometry">
            <mxPoint x="330" y="390" as="sourcePoint" />
            <mxPoint x="490" y="390" as="targetPoint" />
          </mxGeometry>
        </mxCell>
      </root>
    </mxGraphModel>
  </diagram>
</mxfile>
